<?xml version="1.0" encoding="utf-8" standalone="no"?>
<!DOCTYPE svg PUBLIC "-//W3C//DTD SVG 1.1//EN"
  "http://www.w3.org/Graphics/SVG/1.1/DTD/svg11.dtd">
<svg xmlns:xlink="http://www.w3.org/1999/xlink" width="864pt" height="432pt" viewBox="0 0 864 432" xmlns="http://www.w3.org/2000/svg" version="1.1">
 <metadata>
  <rdf:RDF xmlns:dc="http://purl.org/dc/elements/1.1/" xmlns:cc="http://creativecommons.org/ns#" xmlns:rdf="http://www.w3.org/1999/02/22-rdf-syntax-ns#">
   <cc:Work>
    <dc:type rdf:resource="http://purl.org/dc/dcmitype/StillImage"/>
    <dc:date>2022-01-23T14:37:22.684549</dc:date>
    <dc:format>image/svg+xml</dc:format>
    <dc:creator>
     <cc:Agent>
      <dc:title>Matplotlib v3.5.1, https://matplotlib.org/</dc:title>
     </cc:Agent>
    </dc:creator>
   </cc:Work>
  </rdf:RDF>
 </metadata>
 <defs>
  <style type="text/css">*{stroke-linejoin: round; stroke-linecap: butt}</style>
 </defs>
 <g id="figure_1">
  <g id="patch_1">
   <path d="M 0 432 
L 864 432 
L 864 0 
L 0 0 
z
" style="fill: #ffffff"/>
  </g>
  <g id="axes_1">
   <g id="patch_2">
    <path d="M 108 384.48 
L 777.6 384.48 
L 777.6 51.84 
L 108 51.84 
z
" style="fill: #ffffff"/>
   </g>
   <g id="matplotlib.axis_1">
    <g id="xtick_1">
     <g id="line2d_1">
      <path d="M 108 384.48 
L 108 51.84 
" clip-path="url(#p0c98cf7c9d)" style="fill: none; stroke: #b0b0b0; stroke-width: 0.8; stroke-linecap: square"/>
     </g>
     <g id="line2d_2">
      <defs>
       <path id="mb48fe68ca2" d="M 0 0 
L 0 3.5 
" style="stroke: #000000; stroke-width: 0.8"/>
      </defs>
      <g>
       <use xlink:href="#mb48fe68ca2" x="108" y="384.48" style="stroke: #000000; stroke-width: 0.8"/>
      </g>
     </g>
     <g id="text_1">
      <!-- 0 -->
      <g transform="translate(104.81875 399.078438)scale(0.1 -0.1)">
       <defs>
        <path id="DejaVuSans-30" d="M 2034 4250 
Q 1547 4250 1301 3770 
Q 1056 3291 1056 2328 
Q 1056 1369 1301 889 
Q 1547 409 2034 409 
Q 2525 409 2770 889 
Q 3016 1369 3016 2328 
Q 3016 3291 2770 3770 
Q 2525 4250 2034 4250 
z
M 2034 4750 
Q 2819 4750 3233 4129 
Q 3647 3509 3647 2328 
Q 3647 1150 3233 529 
Q 2819 -91 2034 -91 
Q 1250 -91 836 529 
Q 422 1150 422 2328 
Q 422 3509 836 4129 
Q 1250 4750 2034 4750 
z
" transform="scale(0.015625)"/>
       </defs>
       <use xlink:href="#DejaVuSans-30"/>
      </g>
     </g>
    </g>
    <g id="xtick_2">
     <g id="line2d_3">
      <path d="M 149.85 384.48 
L 149.85 51.84 
" clip-path="url(#p0c98cf7c9d)" style="fill: none; stroke: #b0b0b0; stroke-width: 0.8; stroke-linecap: square"/>
     </g>
     <g id="line2d_4">
      <g>
       <use xlink:href="#mb48fe68ca2" x="149.85" y="384.48" style="stroke: #000000; stroke-width: 0.8"/>
      </g>
     </g>
     <g id="text_2">
      <!-- 1 -->
      <g transform="translate(146.66875 399.078438)scale(0.1 -0.1)">
       <defs>
        <path id="DejaVuSans-31" d="M 794 531 
L 1825 531 
L 1825 4091 
L 703 3866 
L 703 4441 
L 1819 4666 
L 2450 4666 
L 2450 531 
L 3481 531 
L 3481 0 
L 794 0 
L 794 531 
z
" transform="scale(0.015625)"/>
       </defs>
       <use xlink:href="#DejaVuSans-31"/>
      </g>
     </g>
    </g>
    <g id="xtick_3">
     <g id="line2d_5">
      <path d="M 191.7 384.48 
L 191.7 51.84 
" clip-path="url(#p0c98cf7c9d)" style="fill: none; stroke: #b0b0b0; stroke-width: 0.8; stroke-linecap: square"/>
     </g>
     <g id="line2d_6">
      <g>
       <use xlink:href="#mb48fe68ca2" x="191.7" y="384.48" style="stroke: #000000; stroke-width: 0.8"/>
      </g>
     </g>
     <g id="text_3">
      <!-- 2 -->
      <g transform="translate(188.51875 399.078438)scale(0.1 -0.1)">
       <defs>
        <path id="DejaVuSans-32" d="M 1228 531 
L 3431 531 
L 3431 0 
L 469 0 
L 469 531 
Q 828 903 1448 1529 
Q 2069 2156 2228 2338 
Q 2531 2678 2651 2914 
Q 2772 3150 2772 3378 
Q 2772 3750 2511 3984 
Q 2250 4219 1831 4219 
Q 1534 4219 1204 4116 
Q 875 4013 500 3803 
L 500 4441 
Q 881 4594 1212 4672 
Q 1544 4750 1819 4750 
Q 2544 4750 2975 4387 
Q 3406 4025 3406 3419 
Q 3406 3131 3298 2873 
Q 3191 2616 2906 2266 
Q 2828 2175 2409 1742 
Q 1991 1309 1228 531 
z
" transform="scale(0.015625)"/>
       </defs>
       <use xlink:href="#DejaVuSans-32"/>
      </g>
     </g>
    </g>
    <g id="xtick_4">
     <g id="line2d_7">
      <path d="M 233.55 384.48 
L 233.55 51.84 
" clip-path="url(#p0c98cf7c9d)" style="fill: none; stroke: #b0b0b0; stroke-width: 0.8; stroke-linecap: square"/>
     </g>
     <g id="line2d_8">
      <g>
       <use xlink:href="#mb48fe68ca2" x="233.55" y="384.48" style="stroke: #000000; stroke-width: 0.8"/>
      </g>
     </g>
     <g id="text_4">
      <!-- 3 -->
      <g transform="translate(230.36875 399.078438)scale(0.1 -0.1)">
       <defs>
        <path id="DejaVuSans-33" d="M 2597 2516 
Q 3050 2419 3304 2112 
Q 3559 1806 3559 1356 
Q 3559 666 3084 287 
Q 2609 -91 1734 -91 
Q 1441 -91 1130 -33 
Q 819 25 488 141 
L 488 750 
Q 750 597 1062 519 
Q 1375 441 1716 441 
Q 2309 441 2620 675 
Q 2931 909 2931 1356 
Q 2931 1769 2642 2001 
Q 2353 2234 1838 2234 
L 1294 2234 
L 1294 2753 
L 1863 2753 
Q 2328 2753 2575 2939 
Q 2822 3125 2822 3475 
Q 2822 3834 2567 4026 
Q 2313 4219 1838 4219 
Q 1578 4219 1281 4162 
Q 984 4106 628 3988 
L 628 4550 
Q 988 4650 1302 4700 
Q 1616 4750 1894 4750 
Q 2613 4750 3031 4423 
Q 3450 4097 3450 3541 
Q 3450 3153 3228 2886 
Q 3006 2619 2597 2516 
z
" transform="scale(0.015625)"/>
       </defs>
       <use xlink:href="#DejaVuSans-33"/>
      </g>
     </g>
    </g>
    <g id="xtick_5">
     <g id="line2d_9">
      <path d="M 275.4 384.48 
L 275.4 51.84 
" clip-path="url(#p0c98cf7c9d)" style="fill: none; stroke: #b0b0b0; stroke-width: 0.8; stroke-linecap: square"/>
     </g>
     <g id="line2d_10">
      <g>
       <use xlink:href="#mb48fe68ca2" x="275.4" y="384.48" style="stroke: #000000; stroke-width: 0.8"/>
      </g>
     </g>
     <g id="text_5">
      <!-- 4 -->
      <g transform="translate(272.21875 399.078438)scale(0.1 -0.1)">
       <defs>
        <path id="DejaVuSans-34" d="M 2419 4116 
L 825 1625 
L 2419 1625 
L 2419 4116 
z
M 2253 4666 
L 3047 4666 
L 3047 1625 
L 3713 1625 
L 3713 1100 
L 3047 1100 
L 3047 0 
L 2419 0 
L 2419 1100 
L 313 1100 
L 313 1709 
L 2253 4666 
z
" transform="scale(0.015625)"/>
       </defs>
       <use xlink:href="#DejaVuSans-34"/>
      </g>
     </g>
    </g>
    <g id="xtick_6">
     <g id="line2d_11">
      <path d="M 317.25 384.48 
L 317.25 51.84 
" clip-path="url(#p0c98cf7c9d)" style="fill: none; stroke: #b0b0b0; stroke-width: 0.8; stroke-linecap: square"/>
     </g>
     <g id="line2d_12">
      <g>
       <use xlink:href="#mb48fe68ca2" x="317.25" y="384.48" style="stroke: #000000; stroke-width: 0.8"/>
      </g>
     </g>
     <g id="text_6">
      <!-- 5 -->
      <g transform="translate(314.06875 399.078438)scale(0.1 -0.1)">
       <defs>
        <path id="DejaVuSans-35" d="M 691 4666 
L 3169 4666 
L 3169 4134 
L 1269 4134 
L 1269 2991 
Q 1406 3038 1543 3061 
Q 1681 3084 1819 3084 
Q 2600 3084 3056 2656 
Q 3513 2228 3513 1497 
Q 3513 744 3044 326 
Q 2575 -91 1722 -91 
Q 1428 -91 1123 -41 
Q 819 9 494 109 
L 494 744 
Q 775 591 1075 516 
Q 1375 441 1709 441 
Q 2250 441 2565 725 
Q 2881 1009 2881 1497 
Q 2881 1984 2565 2268 
Q 2250 2553 1709 2553 
Q 1456 2553 1204 2497 
Q 953 2441 691 2322 
L 691 4666 
z
" transform="scale(0.015625)"/>
       </defs>
       <use xlink:href="#DejaVuSans-35"/>
      </g>
     </g>
    </g>
    <g id="xtick_7">
     <g id="line2d_13">
      <path d="M 359.1 384.48 
L 359.1 51.84 
" clip-path="url(#p0c98cf7c9d)" style="fill: none; stroke: #b0b0b0; stroke-width: 0.8; stroke-linecap: square"/>
     </g>
     <g id="line2d_14">
      <g>
       <use xlink:href="#mb48fe68ca2" x="359.1" y="384.48" style="stroke: #000000; stroke-width: 0.8"/>
      </g>
     </g>
     <g id="text_7">
      <!-- 6 -->
      <g transform="translate(355.91875 399.078438)scale(0.1 -0.1)">
       <defs>
        <path id="DejaVuSans-36" d="M 2113 2584 
Q 1688 2584 1439 2293 
Q 1191 2003 1191 1497 
Q 1191 994 1439 701 
Q 1688 409 2113 409 
Q 2538 409 2786 701 
Q 3034 994 3034 1497 
Q 3034 2003 2786 2293 
Q 2538 2584 2113 2584 
z
M 3366 4563 
L 3366 3988 
Q 3128 4100 2886 4159 
Q 2644 4219 2406 4219 
Q 1781 4219 1451 3797 
Q 1122 3375 1075 2522 
Q 1259 2794 1537 2939 
Q 1816 3084 2150 3084 
Q 2853 3084 3261 2657 
Q 3669 2231 3669 1497 
Q 3669 778 3244 343 
Q 2819 -91 2113 -91 
Q 1303 -91 875 529 
Q 447 1150 447 2328 
Q 447 3434 972 4092 
Q 1497 4750 2381 4750 
Q 2619 4750 2861 4703 
Q 3103 4656 3366 4563 
z
" transform="scale(0.015625)"/>
       </defs>
       <use xlink:href="#DejaVuSans-36"/>
      </g>
     </g>
    </g>
    <g id="xtick_8">
     <g id="line2d_15">
      <path d="M 400.95 384.48 
L 400.95 51.84 
" clip-path="url(#p0c98cf7c9d)" style="fill: none; stroke: #b0b0b0; stroke-width: 0.8; stroke-linecap: square"/>
     </g>
     <g id="line2d_16">
      <g>
       <use xlink:href="#mb48fe68ca2" x="400.95" y="384.48" style="stroke: #000000; stroke-width: 0.8"/>
      </g>
     </g>
     <g id="text_8">
      <!-- 7 -->
      <g transform="translate(397.76875 399.078438)scale(0.1 -0.1)">
       <defs>
        <path id="DejaVuSans-37" d="M 525 4666 
L 3525 4666 
L 3525 4397 
L 1831 0 
L 1172 0 
L 2766 4134 
L 525 4134 
L 525 4666 
z
" transform="scale(0.015625)"/>
       </defs>
       <use xlink:href="#DejaVuSans-37"/>
      </g>
     </g>
    </g>
    <g id="xtick_9">
     <g id="line2d_17">
      <path d="M 442.8 384.48 
L 442.8 51.84 
" clip-path="url(#p0c98cf7c9d)" style="fill: none; stroke: #b0b0b0; stroke-width: 0.8; stroke-linecap: square"/>
     </g>
     <g id="line2d_18">
      <g>
       <use xlink:href="#mb48fe68ca2" x="442.8" y="384.48" style="stroke: #000000; stroke-width: 0.8"/>
      </g>
     </g>
     <g id="text_9">
      <!-- 8 -->
      <g transform="translate(439.61875 399.078438)scale(0.1 -0.1)">
       <defs>
        <path id="DejaVuSans-38" d="M 2034 2216 
Q 1584 2216 1326 1975 
Q 1069 1734 1069 1313 
Q 1069 891 1326 650 
Q 1584 409 2034 409 
Q 2484 409 2743 651 
Q 3003 894 3003 1313 
Q 3003 1734 2745 1975 
Q 2488 2216 2034 2216 
z
M 1403 2484 
Q 997 2584 770 2862 
Q 544 3141 544 3541 
Q 544 4100 942 4425 
Q 1341 4750 2034 4750 
Q 2731 4750 3128 4425 
Q 3525 4100 3525 3541 
Q 3525 3141 3298 2862 
Q 3072 2584 2669 2484 
Q 3125 2378 3379 2068 
Q 3634 1759 3634 1313 
Q 3634 634 3220 271 
Q 2806 -91 2034 -91 
Q 1263 -91 848 271 
Q 434 634 434 1313 
Q 434 1759 690 2068 
Q 947 2378 1403 2484 
z
M 1172 3481 
Q 1172 3119 1398 2916 
Q 1625 2713 2034 2713 
Q 2441 2713 2670 2916 
Q 2900 3119 2900 3481 
Q 2900 3844 2670 4047 
Q 2441 4250 2034 4250 
Q 1625 4250 1398 4047 
Q 1172 3844 1172 3481 
z
" transform="scale(0.015625)"/>
       </defs>
       <use xlink:href="#DejaVuSans-38"/>
      </g>
     </g>
    </g>
    <g id="xtick_10">
     <g id="line2d_19">
      <path d="M 484.65 384.48 
L 484.65 51.84 
" clip-path="url(#p0c98cf7c9d)" style="fill: none; stroke: #b0b0b0; stroke-width: 0.8; stroke-linecap: square"/>
     </g>
     <g id="line2d_20">
      <g>
       <use xlink:href="#mb48fe68ca2" x="484.65" y="384.48" style="stroke: #000000; stroke-width: 0.8"/>
      </g>
     </g>
     <g id="text_10">
      <!-- 9 -->
      <g transform="translate(481.46875 399.078438)scale(0.1 -0.1)">
       <defs>
        <path id="DejaVuSans-39" d="M 703 97 
L 703 672 
Q 941 559 1184 500 
Q 1428 441 1663 441 
Q 2288 441 2617 861 
Q 2947 1281 2994 2138 
Q 2813 1869 2534 1725 
Q 2256 1581 1919 1581 
Q 1219 1581 811 2004 
Q 403 2428 403 3163 
Q 403 3881 828 4315 
Q 1253 4750 1959 4750 
Q 2769 4750 3195 4129 
Q 3622 3509 3622 2328 
Q 3622 1225 3098 567 
Q 2575 -91 1691 -91 
Q 1453 -91 1209 -44 
Q 966 3 703 97 
z
M 1959 2075 
Q 2384 2075 2632 2365 
Q 2881 2656 2881 3163 
Q 2881 3666 2632 3958 
Q 2384 4250 1959 4250 
Q 1534 4250 1286 3958 
Q 1038 3666 1038 3163 
Q 1038 2656 1286 2365 
Q 1534 2075 1959 2075 
z
" transform="scale(0.015625)"/>
       </defs>
       <use xlink:href="#DejaVuSans-39"/>
      </g>
     </g>
    </g>
    <g id="xtick_11">
     <g id="line2d_21">
      <path d="M 526.5 384.48 
L 526.5 51.84 
" clip-path="url(#p0c98cf7c9d)" style="fill: none; stroke: #b0b0b0; stroke-width: 0.8; stroke-linecap: square"/>
     </g>
     <g id="line2d_22">
      <g>
       <use xlink:href="#mb48fe68ca2" x="526.5" y="384.48" style="stroke: #000000; stroke-width: 0.8"/>
      </g>
     </g>
     <g id="text_11">
      <!-- 10 -->
      <g transform="translate(520.1375 399.078438)scale(0.1 -0.1)">
       <use xlink:href="#DejaVuSans-31"/>
       <use xlink:href="#DejaVuSans-30" x="63.623047"/>
      </g>
     </g>
    </g>
    <g id="xtick_12">
     <g id="line2d_23">
      <path d="M 568.35 384.48 
L 568.35 51.84 
" clip-path="url(#p0c98cf7c9d)" style="fill: none; stroke: #b0b0b0; stroke-width: 0.8; stroke-linecap: square"/>
     </g>
     <g id="line2d_24">
      <g>
       <use xlink:href="#mb48fe68ca2" x="568.35" y="384.48" style="stroke: #000000; stroke-width: 0.8"/>
      </g>
     </g>
     <g id="text_12">
      <!-- 11 -->
      <g transform="translate(561.9875 399.078438)scale(0.1 -0.1)">
       <use xlink:href="#DejaVuSans-31"/>
       <use xlink:href="#DejaVuSans-31" x="63.623047"/>
      </g>
     </g>
    </g>
    <g id="xtick_13">
     <g id="line2d_25">
      <path d="M 610.2 384.48 
L 610.2 51.84 
" clip-path="url(#p0c98cf7c9d)" style="fill: none; stroke: #b0b0b0; stroke-width: 0.8; stroke-linecap: square"/>
     </g>
     <g id="line2d_26">
      <g>
       <use xlink:href="#mb48fe68ca2" x="610.2" y="384.48" style="stroke: #000000; stroke-width: 0.8"/>
      </g>
     </g>
     <g id="text_13">
      <!-- 12 -->
      <g transform="translate(603.8375 399.078438)scale(0.1 -0.1)">
       <use xlink:href="#DejaVuSans-31"/>
       <use xlink:href="#DejaVuSans-32" x="63.623047"/>
      </g>
     </g>
    </g>
    <g id="xtick_14">
     <g id="line2d_27">
      <path d="M 652.05 384.48 
L 652.05 51.84 
" clip-path="url(#p0c98cf7c9d)" style="fill: none; stroke: #b0b0b0; stroke-width: 0.8; stroke-linecap: square"/>
     </g>
     <g id="line2d_28">
      <g>
       <use xlink:href="#mb48fe68ca2" x="652.05" y="384.48" style="stroke: #000000; stroke-width: 0.8"/>
      </g>
     </g>
     <g id="text_14">
      <!-- 13 -->
      <g transform="translate(645.6875 399.078438)scale(0.1 -0.1)">
       <use xlink:href="#DejaVuSans-31"/>
       <use xlink:href="#DejaVuSans-33" x="63.623047"/>
      </g>
     </g>
    </g>
    <g id="xtick_15">
     <g id="line2d_29">
      <path d="M 693.9 384.48 
L 693.9 51.84 
" clip-path="url(#p0c98cf7c9d)" style="fill: none; stroke: #b0b0b0; stroke-width: 0.8; stroke-linecap: square"/>
     </g>
     <g id="line2d_30">
      <g>
       <use xlink:href="#mb48fe68ca2" x="693.9" y="384.48" style="stroke: #000000; stroke-width: 0.8"/>
      </g>
     </g>
     <g id="text_15">
      <!-- 14 -->
      <g transform="translate(687.5375 399.078438)scale(0.1 -0.1)">
       <use xlink:href="#DejaVuSans-31"/>
       <use xlink:href="#DejaVuSans-34" x="63.623047"/>
      </g>
     </g>
    </g>
    <g id="xtick_16">
     <g id="line2d_31">
      <path d="M 735.75 384.48 
L 735.75 51.84 
" clip-path="url(#p0c98cf7c9d)" style="fill: none; stroke: #b0b0b0; stroke-width: 0.8; stroke-linecap: square"/>
     </g>
     <g id="line2d_32">
      <g>
       <use xlink:href="#mb48fe68ca2" x="735.75" y="384.48" style="stroke: #000000; stroke-width: 0.8"/>
      </g>
     </g>
     <g id="text_16">
      <!-- 15 -->
      <g transform="translate(729.3875 399.078438)scale(0.1 -0.1)">
       <use xlink:href="#DejaVuSans-31"/>
       <use xlink:href="#DejaVuSans-35" x="63.623047"/>
      </g>
     </g>
    </g>
    <g id="xtick_17">
     <g id="line2d_33">
      <path d="M 777.6 384.48 
L 777.6 51.84 
" clip-path="url(#p0c98cf7c9d)" style="fill: none; stroke: #b0b0b0; stroke-width: 0.8; stroke-linecap: square"/>
     </g>
     <g id="line2d_34">
      <g>
       <use xlink:href="#mb48fe68ca2" x="777.6" y="384.48" style="stroke: #000000; stroke-width: 0.8"/>
      </g>
     </g>
     <g id="text_17">
      <!-- 16 -->
      <g transform="translate(771.2375 399.078438)scale(0.1 -0.1)">
       <use xlink:href="#DejaVuSans-31"/>
       <use xlink:href="#DejaVuSans-36" x="63.623047"/>
      </g>
     </g>
    </g>
   </g>
   <g id="matplotlib.axis_2">
    <g id="ytick_1">
     <g id="line2d_35">
      <path d="M 108 384.48 
L 777.6 384.48 
" clip-path="url(#p0c98cf7c9d)" style="fill: none; stroke: #b0b0b0; stroke-width: 0.8; stroke-linecap: square"/>
     </g>
     <g id="line2d_36">
      <defs>
       <path id="m2e5497ebec" d="M 0 0 
L -3.5 0 
" style="stroke: #000000; stroke-width: 0.8"/>
      </defs>
      <g>
       <use xlink:href="#m2e5497ebec" x="108" y="384.48" style="stroke: #000000; stroke-width: 0.8"/>
      </g>
     </g>
     <g id="text_18">
      <!-- −10 -->
      <g transform="translate(79.895313 388.279219)scale(0.1 -0.1)">
       <defs>
        <path id="DejaVuSans-2212" d="M 678 2272 
L 4684 2272 
L 4684 1741 
L 678 1741 
L 678 2272 
z
" transform="scale(0.015625)"/>
       </defs>
       <use xlink:href="#DejaVuSans-2212"/>
       <use xlink:href="#DejaVuSans-31" x="83.789062"/>
       <use xlink:href="#DejaVuSans-30" x="147.412109"/>
      </g>
     </g>
    </g>
    <g id="ytick_2">
     <g id="line2d_37">
      <path d="M 108 329.04 
L 777.6 329.04 
" clip-path="url(#p0c98cf7c9d)" style="fill: none; stroke: #b0b0b0; stroke-width: 0.8; stroke-linecap: square"/>
     </g>
     <g id="line2d_38">
      <g>
       <use xlink:href="#m2e5497ebec" x="108" y="329.04" style="stroke: #000000; stroke-width: 0.8"/>
      </g>
     </g>
     <g id="text_19">
      <!-- −5 -->
      <g transform="translate(86.257812 332.839219)scale(0.1 -0.1)">
       <use xlink:href="#DejaVuSans-2212"/>
       <use xlink:href="#DejaVuSans-35" x="83.789062"/>
      </g>
     </g>
    </g>
    <g id="ytick_3">
     <g id="line2d_39">
      <path d="M 108 273.6 
L 777.6 273.6 
" clip-path="url(#p0c98cf7c9d)" style="fill: none; stroke: #b0b0b0; stroke-width: 0.8; stroke-linecap: square"/>
     </g>
     <g id="line2d_40">
      <g>
       <use xlink:href="#m2e5497ebec" x="108" y="273.6" style="stroke: #000000; stroke-width: 0.8"/>
      </g>
     </g>
     <g id="text_20">
      <!-- 0 -->
      <g transform="translate(94.6375 277.399219)scale(0.1 -0.1)">
       <use xlink:href="#DejaVuSans-30"/>
      </g>
     </g>
    </g>
    <g id="ytick_4">
     <g id="line2d_41">
      <path d="M 108 218.16 
L 777.6 218.16 
" clip-path="url(#p0c98cf7c9d)" style="fill: none; stroke: #b0b0b0; stroke-width: 0.8; stroke-linecap: square"/>
     </g>
     <g id="line2d_42">
      <g>
       <use xlink:href="#m2e5497ebec" x="108" y="218.16" style="stroke: #000000; stroke-width: 0.8"/>
      </g>
     </g>
     <g id="text_21">
      <!-- 5 -->
      <g transform="translate(94.6375 221.959219)scale(0.1 -0.1)">
       <use xlink:href="#DejaVuSans-35"/>
      </g>
     </g>
    </g>
    <g id="ytick_5">
     <g id="line2d_43">
      <path d="M 108 162.72 
L 777.6 162.72 
" clip-path="url(#p0c98cf7c9d)" style="fill: none; stroke: #b0b0b0; stroke-width: 0.8; stroke-linecap: square"/>
     </g>
     <g id="line2d_44">
      <g>
       <use xlink:href="#m2e5497ebec" x="108" y="162.72" style="stroke: #000000; stroke-width: 0.8"/>
      </g>
     </g>
     <g id="text_22">
      <!-- 10 -->
      <g transform="translate(88.275 166.519219)scale(0.1 -0.1)">
       <use xlink:href="#DejaVuSans-31"/>
       <use xlink:href="#DejaVuSans-30" x="63.623047"/>
      </g>
     </g>
    </g>
    <g id="ytick_6">
     <g id="line2d_45">
      <path d="M 108 107.28 
L 777.6 107.28 
" clip-path="url(#p0c98cf7c9d)" style="fill: none; stroke: #b0b0b0; stroke-width: 0.8; stroke-linecap: square"/>
     </g>
     <g id="line2d_46">
      <g>
       <use xlink:href="#m2e5497ebec" x="108" y="107.28" style="stroke: #000000; stroke-width: 0.8"/>
      </g>
     </g>
     <g id="text_23">
      <!-- 15 -->
      <g transform="translate(88.275 111.079219)scale(0.1 -0.1)">
       <use xlink:href="#DejaVuSans-31"/>
       <use xlink:href="#DejaVuSans-35" x="63.623047"/>
      </g>
     </g>
    </g>
    <g id="ytick_7">
     <g id="line2d_47">
      <path d="M 108 51.84 
L 777.6 51.84 
" clip-path="url(#p0c98cf7c9d)" style="fill: none; stroke: #b0b0b0; stroke-width: 0.8; stroke-linecap: square"/>
     </g>
     <g id="line2d_48">
      <g>
       <use xlink:href="#m2e5497ebec" x="108" y="51.84" style="stroke: #000000; stroke-width: 0.8"/>
      </g>
     </g>
     <g id="text_24">
      <!-- 20 -->
      <g transform="translate(88.275 55.639219)scale(0.1 -0.1)">
       <use xlink:href="#DejaVuSans-32"/>
       <use xlink:href="#DejaVuSans-30" x="63.623047"/>
      </g>
     </g>
    </g>
   </g>
   <g id="line2d_49">
    <path d="M 108 262.512 
L 751.481494 433 
L 751.481494 433 
" clip-path="url(#p0c98cf7c9d)" style="fill: none; stroke: #1f77b4; stroke-width: 1.5; stroke-linecap: square"/>
   </g>
   <g id="line2d_50">
    <path d="M 108 262.512 
L 114.252979 265.701639 
L 120.505957 268.643743 
L 126.758936 271.338312 
L 133.011914 273.785347 
L 139.264893 275.984847 
L 145.517871 277.936812 
L 151.77085 279.641243 
L 158.023828 281.098138 
L 164.276807 282.307499 
L 170.529785 283.269325 
L 176.782764 283.983617 
L 183.035742 284.450373 
L 189.288721 284.669595 
L 195.541699 284.641283 
L 201.794678 284.365435 
L 208.047656 283.842053 
L 214.300635 283.071136 
L 220.553613 282.052684 
L 226.806592 280.786697 
L 233.05957 279.273176 
L 239.312549 277.51212 
L 245.565527 275.503529 
L 251.818506 273.247404 
L 258.071484 270.743744 
L 264.324463 267.992549 
L 270.577441 264.993819 
L 276.83042 261.747554 
L 283.083398 258.253755 
L 289.336377 254.512421 
L 295.589355 250.523553 
L 301.842334 246.287149 
L 308.095312 241.803211 
L 315.043066 236.530739 
L 321.99082 230.952668 
L 328.938574 225.068999 
L 335.886328 218.879732 
L 342.834082 212.384866 
L 349.781836 205.584402 
L 356.72959 198.478339 
L 363.677344 191.066678 
L 370.625098 183.349418 
L 377.572852 175.32656 
L 385.215381 166.14845 
L 392.85791 156.600566 
L 400.500439 146.682907 
L 408.142969 136.395475 
L 415.785498 125.738268 
L 423.428027 114.711287 
L 431.070557 103.314532 
L 439.407861 90.459983 
L 447.745166 77.165372 
L 456.082471 63.430699 
L 464.419775 49.255964 
L 472.75708 34.641168 
L 481.094385 19.58631 
L 489.431689 4.09139 
L 492.120607 -1 
L 492.120607 -1 
" clip-path="url(#p0c98cf7c9d)" style="fill: none; stroke: #ff7f0e; stroke-width: 1.5; stroke-linecap: square"/>
   </g>
   <g id="line2d_51">
    <path d="M 108 262.512 
L 112.168652 265.66221 
L 116.337305 268.493331 
L 120.505957 271.016324 
L 124.674609 273.242146 
L 128.843262 275.181756 
L 133.011914 276.846112 
L 137.180566 278.246174 
L 141.349219 279.392899 
L 145.517871 280.297246 
L 149.686523 280.970174 
L 153.855176 281.422642 
L 158.023828 281.665608 
L 162.19248 281.71003 
L 167.055908 281.525538 
L 171.919336 281.103125 
L 176.782764 280.460191 
L 182.340967 279.477708 
L 187.89917 278.255903 
L 194.152148 276.62765 
L 200.405127 274.766368 
L 207.352881 272.469952 
L 215.690186 269.466206 
L 226.111816 265.457702 
L 253.902832 254.635955 
L 262.240137 251.705391 
L 269.187891 249.489986 
L 275.440869 247.717177 
L 280.999072 246.348207 
L 286.557275 245.200987 
L 292.115479 244.301493 
L 296.978906 243.738069 
L 301.842334 243.401599 
L 306.705762 243.309485 
L 310.874414 243.438209 
L 315.043066 243.770204 
L 319.211719 244.316429 
L 323.380371 245.087841 
L 327.549023 246.095399 
L 331.717676 247.350063 
L 335.886328 248.86279 
L 340.05498 250.644539 
L 344.223633 252.706269 
L 348.392285 255.058938 
L 352.560938 257.713505 
L 356.72959 260.680929 
L 360.898242 263.972167 
L 365.066895 267.598179 
L 369.235547 271.569923 
L 373.404199 275.898358 
L 377.572852 280.594442 
L 381.741504 285.669134 
L 385.910156 291.133392 
L 390.078809 296.998175 
L 394.247461 303.274442 
L 398.416113 309.973151 
L 402.584766 317.105261 
L 406.753418 324.681729 
L 410.92207 332.713516 
L 415.090723 341.211579 
L 419.259375 350.186877 
L 423.428027 359.650368 
L 427.59668 369.613012 
L 431.765332 380.085766 
L 436.62876 392.963323 
L 441.492188 406.567514 
L 446.355615 420.915742 
L 450.264243 433 
L 450.264243 433 
" clip-path="url(#p0c98cf7c9d)" style="fill: none; stroke: #2ca02c; stroke-width: 1.5; stroke-linecap: square"/>
   </g>
   <g id="line2d_52">
    <path d="M 108 262.512 
L 110.779102 265.312718 
L 113.558203 267.832924 
L 116.337305 270.085283 
L 119.116406 272.082242 
L 121.895508 273.836035 
L 124.674609 275.358681 
L 127.453711 276.66198 
L 130.232812 277.75752 
L 133.011914 278.656671 
L 136.485791 279.521412 
L 139.959668 280.118022 
L 143.433545 280.467291 
L 146.907422 280.589477 
L 150.381299 280.504317 
L 154.549951 280.155433 
L 158.718604 279.567792 
L 162.887256 278.772492 
L 167.750684 277.622159 
L 173.308887 276.069977 
L 180.256641 273.868355 
L 189.983496 270.510119 
L 205.268555 265.231609 
L 212.216309 263.065146 
L 218.469287 261.337385 
L 224.02749 260.02302 
L 229.585693 258.952177 
L 234.449121 258.238747 
L 239.312549 257.752947 
L 244.175977 257.510792 
L 248.344629 257.507816 
L 252.513281 257.70179 
L 256.681934 258.099252 
L 260.850586 258.705651 
L 265.019238 259.52534 
L 269.187891 260.561585 
L 273.356543 261.816558 
L 277.525195 263.29134 
L 281.693848 264.98592 
L 285.8625 266.899195 
L 290.031152 269.028973 
L 294.89458 271.782904 
L 299.758008 274.819907 
L 304.621436 278.130864 
L 309.484863 281.704636 
L 315.043066 286.093784 
L 320.60127 290.786062 
L 326.159473 295.755137 
L 332.412451 301.638992 
L 339.360205 308.485053 
L 347.69751 317.028022 
L 360.203467 330.20937 
L 373.404199 344.045487 
L 381.046729 351.730837 
L 387.299707 357.699598 
L 392.85791 362.68066 
L 397.721338 366.730341 
L 401.88999 369.932578 
L 406.058643 372.852244 
L 409.53252 375.04519 
L 413.006396 376.998483 
L 416.480273 378.691533 
L 419.95415 380.103226 
L 422.733252 381.015477 
L 425.512354 381.722496 
L 428.291455 382.212743 
L 431.070557 382.474463 
L 433.849658 382.495687 
L 436.62876 382.26423 
L 439.407861 381.767689 
L 442.186963 380.993448 
L 444.966064 379.928674 
L 447.745166 378.56032 
L 450.524268 376.87512 
L 453.303369 374.859597 
L 456.082471 372.500054 
L 458.861572 369.782581 
L 461.640674 366.693053 
L 464.419775 363.217126 
L 467.198877 359.340244 
L 469.977979 355.047633 
L 472.75708 350.324304 
L 475.536182 345.155054 
L 478.315283 339.524462 
L 481.094385 333.416893 
L 483.873486 326.816495 
L 486.652588 319.707201 
L 489.431689 312.072729 
L 492.210791 303.896581 
L 495.684668 292.889181 
L 499.158545 280.976164 
L 502.632422 268.123884 
L 506.106299 254.298172 
L 509.580176 239.464331 
L 513.054053 223.587137 
L 516.52793 206.63084 
L 520.001807 188.559164 
L 523.475684 169.335306 
L 526.949561 148.921938 
L 530.423438 127.281203 
L 533.897314 104.37472 
L 537.371191 80.163581 
L 540.845068 54.60835 
L 545.013721 22.11157 
L 547.829091 -1 
L 547.829091 -1 
" clip-path="url(#p0c98cf7c9d)" style="fill: none; stroke: #d62728; stroke-width: 1.5; stroke-linecap: square"/>
   </g>
   <g id="line2d_53">
    <path d="M 108 262.512 
L 110.779102 265.954451 
L 113.558203 268.939788 
L 116.337305 271.498883 
L 119.116406 273.661557 
L 121.895508 275.456596 
L 124.674609 276.911764 
L 127.453711 278.053821 
L 130.232812 278.908533 
L 133.011914 279.500688 
L 135.791016 279.854112 
L 138.570117 279.99168 
L 141.349219 279.935334 
L 144.823096 279.624144 
L 148.296973 279.081809 
L 152.465625 278.177697 
L 157.329053 276.848675 
L 162.887256 275.074597 
L 171.919336 271.899388 
L 182.340967 268.273271 
L 188.593945 266.330902 
L 194.152148 264.845218 
L 199.015576 263.774904 
L 203.879004 262.949392 
L 208.047656 262.454349 
L 212.216309 262.167617 
L 216.384961 262.097711 
L 220.553613 262.250406 
L 224.722266 262.628845 
L 228.890918 263.23365 
L 233.05957 264.063029 
L 237.228223 265.112885 
L 241.396875 266.376926 
L 245.565527 267.846772 
L 250.428955 269.807784 
L 255.292383 272.015095 
L 260.850586 274.80984 
L 266.408789 277.857387 
L 272.661768 281.533653 
L 280.304297 286.286199 
L 306.705762 302.961135 
L 312.263965 306.11172 
L 317.127393 308.651013 
L 321.99082 310.941829 
L 326.159473 312.67468 
L 330.328125 314.165815 
L 334.496777 315.38823 
L 337.970654 316.182387 
L 341.444531 316.756211 
L 344.918408 317.094767 
L 348.392285 317.183424 
L 351.866162 317.007897 
L 354.645264 316.667914 
L 357.424365 316.143041 
L 360.203467 315.426556 
L 362.982568 314.511945 
L 365.76167 313.392915 
L 368.540771 312.063409 
L 371.319873 310.51762 
L 374.098975 308.750003 
L 376.878076 306.755295 
L 379.657178 304.528524 
L 382.436279 302.065025 
L 385.910156 298.646169 
L 389.384033 294.842925 
L 392.85791 290.648415 
L 396.331787 286.05667 
L 399.805664 281.062673 
L 403.279541 275.662399 
L 406.753418 269.852863 
L 410.227295 263.632162 
L 413.701172 256.999519 
L 417.175049 249.955326 
L 421.343701 240.961397 
L 425.512354 231.382387 
L 429.681006 221.226182 
L 433.849658 210.503493 
L 438.018311 199.227963 
L 442.881738 185.396883 
L 447.745166 170.868092 
L 452.608594 155.679591 
L 458.166797 137.570628 
L 463.725 118.734713 
L 469.977979 96.785707 
L 477.620508 69.073406 
L 487.347363 32.854803 
L 496.345791 -1 
M 613.79601 -1 
L 615.880811 17.421592 
L 618.659912 43.740207 
L 621.439014 72.141503 
L 624.218115 102.702355 
L 626.997217 135.501205 
L 629.776318 170.618075 
L 632.55542 208.134585 
L 635.334521 248.133965 
L 638.808398 301.754152 
L 642.282275 359.555862 
L 645.756152 421.712477 
L 646.360826 433 
L 646.360826 433 
" clip-path="url(#p0c98cf7c9d)" style="fill: none; stroke: #9467bd; stroke-width: 1.5; stroke-linecap: square"/>
   </g>
   <g id="patch_3">
    <path d="M 108 384.48 
L 108 51.84 
" style="fill: none; stroke: #000000; stroke-width: 0.8; stroke-linejoin: miter; stroke-linecap: square"/>
   </g>
   <g id="patch_4">
    <path d="M 777.6 384.48 
L 777.6 51.84 
" style="fill: none; stroke: #000000; stroke-width: 0.8; stroke-linejoin: miter; stroke-linecap: square"/>
   </g>
   <g id="patch_5">
    <path d="M 108 384.48 
L 777.6 384.48 
" style="fill: none; stroke: #000000; stroke-width: 0.8; stroke-linejoin: miter; stroke-linecap: square"/>
   </g>
   <g id="patch_6">
    <path d="M 108 51.84 
L 777.6 51.84 
" style="fill: none; stroke: #000000; stroke-width: 0.8; stroke-linejoin: miter; stroke-linecap: square"/>
   </g>
   <g id="legend_1">
    <g id="patch_7">
     <path d="M 714.5 379.48 
L 770.6 379.48 
Q 772.6 379.48 772.6 377.48 
L 772.6 305.089375 
Q 772.6 303.089375 770.6 303.089375 
L 714.5 303.089375 
Q 712.5 303.089375 712.5 305.089375 
L 712.5 377.48 
Q 712.5 379.48 714.5 379.48 
z
" style="fill: #ffffff; opacity: 0.8; stroke: #cccccc; stroke-linejoin: miter"/>
    </g>
    <g id="line2d_54">
     <path d="M 716.5 311.187813 
L 726.5 311.187813 
L 736.5 311.187813 
" style="fill: none; stroke: #1f77b4; stroke-width: 1.5; stroke-linecap: square"/>
    </g>
    <g id="text_25">
     <!-- $L_{1}(x)$ -->
     <g transform="translate(744.5 314.687813)scale(0.1 -0.1)">
      <defs>
       <path id="DejaVuSans-Oblique-4c" d="M 1075 4666 
L 1709 4666 
L 909 525 
L 3181 525 
L 3078 0 
L 172 0 
L 1075 4666 
z
" transform="scale(0.015625)"/>
       <path id="DejaVuSans-28" d="M 1984 4856 
Q 1566 4138 1362 3434 
Q 1159 2731 1159 2009 
Q 1159 1288 1364 580 
Q 1569 -128 1984 -844 
L 1484 -844 
Q 1016 -109 783 600 
Q 550 1309 550 2009 
Q 550 2706 781 3412 
Q 1013 4119 1484 4856 
L 1984 4856 
z
" transform="scale(0.015625)"/>
       <path id="DejaVuSans-Oblique-78" d="M 3841 3500 
L 2234 1784 
L 3219 0 
L 2559 0 
L 1819 1388 
L 531 0 
L -166 0 
L 1556 1844 
L 641 3500 
L 1300 3500 
L 1972 2234 
L 3144 3500 
L 3841 3500 
z
" transform="scale(0.015625)"/>
       <path id="DejaVuSans-29" d="M 513 4856 
L 1013 4856 
Q 1481 4119 1714 3412 
Q 1947 2706 1947 2009 
Q 1947 1309 1714 600 
Q 1481 -109 1013 -844 
L 513 -844 
Q 928 -128 1133 580 
Q 1338 1288 1338 2009 
Q 1338 2731 1133 3434 
Q 928 4138 513 4856 
z
" transform="scale(0.015625)"/>
      </defs>
      <use xlink:href="#DejaVuSans-Oblique-4c" transform="translate(0 0.125)"/>
      <use xlink:href="#DejaVuSans-31" transform="translate(55.712891 -16.28125)scale(0.7)"/>
      <use xlink:href="#DejaVuSans-28" transform="translate(102.983398 0.125)"/>
      <use xlink:href="#DejaVuSans-Oblique-78" transform="translate(141.99707 0.125)"/>
      <use xlink:href="#DejaVuSans-29" transform="translate(201.176758 0.125)"/>
     </g>
    </g>
    <g id="line2d_55">
     <path d="M 716.5 325.865937 
L 726.5 325.865937 
L 736.5 325.865937 
" style="fill: none; stroke: #ff7f0e; stroke-width: 1.5; stroke-linecap: square"/>
    </g>
    <g id="text_26">
     <!-- $L_{2}(x)$ -->
     <g transform="translate(744.5 329.365937)scale(0.1 -0.1)">
      <use xlink:href="#DejaVuSans-Oblique-4c" transform="translate(0 0.125)"/>
      <use xlink:href="#DejaVuSans-32" transform="translate(55.712891 -16.28125)scale(0.7)"/>
      <use xlink:href="#DejaVuSans-28" transform="translate(102.983398 0.125)"/>
      <use xlink:href="#DejaVuSans-Oblique-78" transform="translate(141.99707 0.125)"/>
      <use xlink:href="#DejaVuSans-29" transform="translate(201.176758 0.125)"/>
     </g>
    </g>
    <g id="line2d_56">
     <path d="M 716.5 340.544062 
L 726.5 340.544062 
L 736.5 340.544062 
" style="fill: none; stroke: #2ca02c; stroke-width: 1.5; stroke-linecap: square"/>
    </g>
    <g id="text_27">
     <!-- $L_{3}(x)$ -->
     <g transform="translate(744.5 344.044062)scale(0.1 -0.1)">
      <use xlink:href="#DejaVuSans-Oblique-4c" transform="translate(0 0.125)"/>
      <use xlink:href="#DejaVuSans-33" transform="translate(55.712891 -16.28125)scale(0.7)"/>
      <use xlink:href="#DejaVuSans-28" transform="translate(102.983398 0.125)"/>
      <use xlink:href="#DejaVuSans-Oblique-78" transform="translate(141.99707 0.125)"/>
      <use xlink:href="#DejaVuSans-29" transform="translate(201.176758 0.125)"/>
     </g>
    </g>
    <g id="line2d_57">
     <path d="M 716.5 355.222188 
L 726.5 355.222188 
L 736.5 355.222188 
" style="fill: none; stroke: #d62728; stroke-width: 1.5; stroke-linecap: square"/>
    </g>
    <g id="text_28">
     <!-- $L_{4}(x)$ -->
     <g transform="translate(744.5 358.722188)scale(0.1 -0.1)">
      <use xlink:href="#DejaVuSans-Oblique-4c" transform="translate(0 0.125)"/>
      <use xlink:href="#DejaVuSans-34" transform="translate(55.712891 -16.28125)scale(0.7)"/>
      <use xlink:href="#DejaVuSans-28" transform="translate(102.983398 0.125)"/>
      <use xlink:href="#DejaVuSans-Oblique-78" transform="translate(141.99707 0.125)"/>
      <use xlink:href="#DejaVuSans-29" transform="translate(201.176758 0.125)"/>
     </g>
    </g>
    <g id="line2d_58">
     <path d="M 716.5 369.900313 
L 726.5 369.900313 
L 736.5 369.900313 
" style="fill: none; stroke: #9467bd; stroke-width: 1.5; stroke-linecap: square"/>
    </g>
    <g id="text_29">
     <!-- $L_{5}(x)$ -->
     <g transform="translate(744.5 373.400313)scale(0.1 -0.1)">
      <use xlink:href="#DejaVuSans-Oblique-4c" transform="translate(0 0.125)"/>
      <use xlink:href="#DejaVuSans-35" transform="translate(55.712891 -16.28125)scale(0.7)"/>
      <use xlink:href="#DejaVuSans-28" transform="translate(102.983398 0.125)"/>
      <use xlink:href="#DejaVuSans-Oblique-78" transform="translate(141.99707 0.125)"/>
      <use xlink:href="#DejaVuSans-29" transform="translate(201.176758 0.125)"/>
     </g>
    </g>
   </g>
  </g>
 </g>
 <defs>
  <clipPath id="p0c98cf7c9d">
   <rect x="108" y="51.84" width="669.6" height="332.64"/>
  </clipPath>
 </defs>
</svg>
